<?xml version="1.0" standalone="no"?>
<!DOCTYPE svg PUBLIC "-//W3C//DTD SVG 1.1//EN" "http://www.w3.org/Graphics/SVG/1.1/DTD/svg11.dtd" >
<svg xmlns="http://www.w3.org/2000/svg" xmlns:xlink="http://www.w3.org/1999/xlink" version="1.1">
<metadata>
Created by FontForge 20190801 at Tue Aug 30 17:26:56 2016
 By root
Copyright (c) 2014 by Typesketchbook. All rights reserved.
</metadata>
<defs>
<font id="TolyerNo1-Thin" horiz-adv-x="453" >
  <font-face 
    font-family="Tolyer No.1 Thin"
    font-weight="400"
    font-stretch="normal"
    units-per-em="1100"
    panose-1="2 0 0 0 0 0 0 0 0 0"
    ascent="940"
    descent="-160"
    x-height="550"
    cap-height="550"
    bbox="38 -298 1124 771"
    underline-thickness="35"
    underline-position="-233"
    unicode-range="U+0020-25CC"
  />
<missing-glyph horiz-adv-x="733" 
d="M112 0v628h509v-628h-509zM158 35q0 9 -8 11h8v-11zM575 590q0 -8 8 -8h-8v8zM583 46q-8 -2 -8 -9v9h8zM150 582q6 0 8 8v-8h-8zM158 46h417v536h-417v-536z" />
    <glyph glyph-name=".notdef" horiz-adv-x="733" 
d="M112 0v628h509v-628h-509zM158 35q0 9 -8 11h8v-11zM575 590q0 -8 8 -8h-8v8zM583 46q-8 -2 -8 -9v9h8zM150 582q6 0 8 8v-8h-8zM158 46h417v536h-417v-536z" />
    <glyph glyph-name=".null" horiz-adv-x="0" 
 />
    <glyph glyph-name="nonmarkingreturn" horiz-adv-x="283" 
 />
    <glyph glyph-name="space" unicode=" " horiz-adv-x="233" 
 />
    <glyph glyph-name="exclam" unicode="!" horiz-adv-x="254" 
d="M112 550h30l-7 -470h-16zM114 26h25v-26h-25v26z" />
    <glyph glyph-name="quotedbl" unicode="&#x22;" horiz-adv-x="328" 
d="M112 550h31l-6 -118h-16zM185 550h31l-6 -118h-16z" />
    <glyph glyph-name="numbersign" unicode="#" horiz-adv-x="852" 
d="M612 384l-58 -246h155v-22h-161l-26 -116h-26l27 116h-265l-27 -116h-25l27 116h-121v22h127l57 246h-154v22h160l33 144h26l-34 -144h265q8 35 16.5 72t17.5 72h26l-35 -144h123v-22h-128zM586 384h-265l-57 -246h264z" />
    <glyph glyph-name="dollar" unicode="$" horiz-adv-x="519" 
d="M407 124q0 -62 -37 -92.5t-103 -35.5v-82h-17v81h-6q-21 0 -42 3q-18 2 -39.5 5.5t-40.5 9.5v19q26 -5 57 -10t61 -5q33 0 59 5t45 17t29 33t10 53q0 27 -20 52.5t-50 50.5t-65.5 49.5t-65.5 50t-50 52t-20 56.5q0 17 6.5 36t22.5 36t42.5 29t66.5 16v74h17v-72h18
q17 0 41.5 -0.5t55.5 -2.5v-19h-60q-27 0 -59 -2t-60.5 -12t-47.5 -30t-19 -56q0 -21 20 -44.5t50 -48t65.5 -51t65.5 -53.5t50 -55.5t20 -56.5z" />
    <glyph glyph-name="percent" unicode="%" horiz-adv-x="664" 
d="M239 0h-25l213 550h26zM197 389q38 0 52 20.5t14 49.5q0 32 -14 53.5t-52 21.5t-52 -21.5t-14 -53.5q0 -29 14 -49.5t52 -20.5zM197 370q-16 0 -31 4.5t-27 14.5t-19.5 27t-7.5 41q0 96 85 96t85 -96q0 -24 -7.5 -41t-19.5 -27t-27 -14.5t-31 -4.5zM467 19q38 0 52 20.5
t14 49.5q0 32 -14 53.5t-52 21.5t-52 -21.5t-14 -53.5q0 -29 14 -49.5t52 -20.5zM467 0q-16 0 -31 4.5t-27 14.5t-19.5 27t-7.5 41q0 96 85 96t85 -96q0 -24 -7.5 -41t-19.5 -27t-27 -14.5t-31 -4.5z" />
    <glyph glyph-name="ampersand" unicode="&#x26;" horiz-adv-x="666" 
d="M461 74q22 16 43 33.5t35 31.5l15 -12q-12 -12 -35 -32t-45 -37l40 -42l-15 -15l-42 46q-29 -18 -52.5 -28.5t-44 -16t-37.5 -6.5t-32 -1q-37 0 -69.5 6.5t-57 21.5t-38.5 39t-14 58q0 21 4 40t18 38t41 38t74 39q-44 45 -64.5 86.5t-20.5 73.5q0 64 36 92t93 28
q29 0 53.5 -6t42 -20t27 -37t9.5 -57q0 -32 -10 -56t-29 -42.5t-45 -34.5t-58 -33zM292 533q-35 0 -56 -10.5t-31.5 -26t-13.5 -32.5t-3 -29q0 -26 12.5 -52t27.5 -48q18 -26 40 -49q24 11 48 24t43 30.5t30.5 40t11.5 53.5q0 16 -2 33.5t-12.5 32t-32.5 24t-62 9.5zM290 17
q16 0 30.5 1t31.5 5.5t38.5 13.5t52.5 26l-182 197q-30 -15 -53 -28t-39 -28t-24.5 -35t-8.5 -49q0 -53 39.5 -78t114.5 -25z" />
    <glyph glyph-name="quotesingle" unicode="'" horiz-adv-x="255" 
d="M112 550h31l-6 -118h-16z" />
    <glyph glyph-name="parenleft" unicode="(" horiz-adv-x="304" 
d="M192 703q-12 -58 -22.5 -113.5t-18 -111t-11.5 -112.5t-4 -118q0 -105 14 -201.5t41 -202.5h-24q-15 57 -25.5 106t-17 96.5t-9.5 96.5t-3 105q0 61 3.5 118t11 112.5t17.5 110.5t24 114h24z" />
    <glyph glyph-name="parenright" unicode=")" horiz-adv-x="304" 
d="M136 703q13 -59 23.5 -114t18 -110.5t11 -112.5t3.5 -118q0 -56 -3 -105t-9.5 -96.5t-17 -96.5t-25.5 -106h-24q27 106 41 202.5t14 201.5q0 61 -4.5 118t-12 112.5t-17.5 111t-22 113.5h24z" />
    <glyph glyph-name="asterisk" unicode="*" horiz-adv-x="554" 
d="M184 204l-25 18l107 146l-154 59l12 28l144 -69l-6 164h30l-6 -164l144 69l12 -28l-154 -59l107 -146l-25 -18l-93 152z" />
    <glyph glyph-name="plus" unicode="+" horiz-adv-x="544" 
d="M260 220h-148v22h148v173h24v-173h148v-22h-148v-158h-24v158z" />
    <glyph glyph-name="comma" unicode="," horiz-adv-x="251" 
d="M112 8h27l-7 -118h-16z" />
    <glyph glyph-name="hyphen" unicode="-" horiz-adv-x="477" 
d="M112 242h253v-22h-253v22z" />
    <glyph glyph-name="period" unicode="." horiz-adv-x="249" 
d="M112 26h25v-26h-25v26z" />
    <glyph glyph-name="slash" unicode="/" horiz-adv-x="459" 
d="M137 -51h-25l210 646h25z" />
    <glyph glyph-name="zero" unicode="0" horiz-adv-x="500" 
d="M250 17q33 0 60.5 10t47 28t30.5 43t11 55v261q0 63 -41.5 91t-107.5 28t-107.5 -28t-41.5 -91v-261q0 -30 11 -55t30.5 -43t47 -28t60.5 -10zM250 -5q-30 0 -61 7.5t-55.5 26t-40.5 49.5t-16 78v259q0 43 16 70.5t40.5 43t55.5 21t61 5.5t61 -5.5t55.5 -21t40.5 -43
t16 -70.5v-259q0 -47 -16 -78t-40.5 -49.5t-55.5 -26t-61 -7.5z" />
    <glyph glyph-name="one" unicode="1" horiz-adv-x="326" 
d="M220 0v524q-38 -17 -83 -37t-85 -39v27l168 75h24v-550h-24z" />
    <glyph glyph-name="two" unicode="2" horiz-adv-x="476" 
d="M241 533q-57 0 -87.5 -14.5t-41.5 -56.5h-24q8 53 47.5 73t105.5 20q31 0 60 -4t50.5 -18t34.5 -40t13 -70q0 -29 -13.5 -67.5t-45 -87.5t-83 -110t-127.5 -136h270v-22h-306v22q22 19 51 48t60.5 63.5t62 72.5t54 75.5t38.5 73t15 65.5q0 64 -31.5 88.5t-102.5 24.5z
" />
    <glyph glyph-name="three" unicode="3" horiz-adv-x="437" 
d="M218 -5q-49 0 -86 15t-54 55h29q14 -25 44.5 -36.5t66.5 -11.5q60 0 86.5 26.5t26.5 89.5q0 50 -27 82.5t-93 39.5v22q27 3 49 14t38 28.5t24.5 39.5t8.5 47v7q0 59 -27 89.5t-98 30.5q-35 0 -62 -9t-41 -37h-26q18 41 53.5 54.5t75.5 13.5q30 0 57 -6.5t47.5 -21.5
t32.5 -40t12 -61v-13q0 -50 -18 -84t-69 -62q28 -8 45 -25t26.5 -37t12.5 -39.5t3 -32.5q0 -46 -10.5 -73t-29.5 -41.5t-44 -19t-53 -4.5z" />
    <glyph glyph-name="four" unicode="4" horiz-adv-x="500" 
d="M431 134h-57v-134h-24v134h-298v34l284 382h38v-394h57v-22zM350 156v372l-278 -372h278z" />
    <glyph glyph-name="five" unicode="5" horiz-adv-x="437" 
d="M75 550h293v-22h-269v-250q42 30 74 36t49 6q60 0 92 -18t47 -42t17.5 -48.5t2.5 -37.5v-63q0 -36 -12 -59t-32.5 -35.5t-47.5 -17t-57 -4.5q-60 0 -97.5 16.5t-48.5 51.5h31q13 -29 40.5 -37.5t73.5 -8.5q34 0 58 5.5t39 18t22 34t7 53.5v42q0 24 -4 47t-18 41t-41 29
t-72 11q-11 0 -26.5 -3t-32.5 -9.5t-34.5 -17t-32.5 -25.5l-21 5v302z" />
    <glyph glyph-name="six" unicode="6" horiz-adv-x="487" 
d="M361 517q-45 16 -106 16q-65 0 -104.5 -37t-39.5 -96v-133q13 24 34 37.5t42 19.5t37.5 7t19.5 1q25 0 53 -6t52 -24.5t40 -53t16 -92.5q0 -46 -14 -77t-36.5 -49.5t-51 -26.5t-58.5 -8q-32 0 -60.5 8.5t-50 26.5t-34.5 46.5t-13 67.5v256q0 44 15 73.5t39 47.5t54 26
t60 8q32 0 61.5 -5t53.5 -13zM245 310q-38 0 -63.5 -12t-41 -32.5t-22.5 -47t-7 -55.5v-5q0 -28 7 -53.5t22.5 -45t41 -31t63.5 -11.5t64 11.5t42 31t23 45t7 53.5v7q0 29 -7 55t-23 46t-42 32t-64 12z" />
    <glyph glyph-name="seven" unicode="7" horiz-adv-x="412" 
d="M114 0l210 528h-272v22h298v-22l-210 -528h-26z" />
    <glyph glyph-name="eight" unicode="8" horiz-adv-x="472" 
d="M236 286q63 0 99 35t36 90v8q0 63 -31.5 88.5t-103.5 25.5t-103.5 -25.5t-31.5 -88.5v-8q0 -55 36 -90t99 -35zM236 17q73 0 104 29t31 91v6q0 27 -5.5 49.5t-20.5 38t-41 24.5t-68 9t-68 -9t-41 -24.5t-20.5 -38t-5.5 -49.5v-6q0 -62 31 -91t104 -29zM236 -5
q-32 0 -60.5 6t-50.5 21t-35 39t-13 60v42q0 10 3 26t12 33t24.5 32t40.5 22q-28 15 -44 34t-24 37.5t-10 35.5t-2 28v15q0 39 12.5 64t34 39.5t50.5 20t62 5.5t62 -5.5t50.5 -20t34 -39.5t12.5 -64v-15q0 -11 -2 -28t-10 -35.5t-24 -37.5t-44 -34q25 -7 40.5 -22t24.5 -32
t12 -33t3 -26v-42q0 -36 -13 -60t-35 -39t-51 -21t-60 -6z" />
    <glyph glyph-name="nine" unicode="9" horiz-adv-x="487" 
d="M126 33q45 -16 106 -16q65 0 104.5 37t39.5 96v133q-13 -24 -34 -37.5t-42 -19.5t-37.5 -7t-19.5 -1q-25 0 -53 6t-52 24.5t-40 53t-16 92.5q0 46 14 77t36.5 49.5t51 26.5t58.5 8q31 0 60 -8.5t50.5 -26.5t34.5 -46.5t13 -67.5v-256q0 -44 -15 -73.5t-39 -47.5t-54 -26
t-60 -8q-32 0 -61.5 5t-53.5 13zM242 240q37 0 63 12t41.5 32.5t22.5 47t7 55.5v5q0 28 -7 53.5t-22.5 45t-41.5 31t-63 11.5q-38 0 -64 -11.5t-42 -31t-23 -45t-7 -53.5v-7q0 -29 7 -55t23 -46t42 -32t64 -12z" />
    <glyph glyph-name="colon" unicode=":" horiz-adv-x="249" 
d="M112 26h25v-26h-25v26zM112 353h25v-26h-25v26z" />
    <glyph glyph-name="semicolon" unicode=";" horiz-adv-x="251" 
d="M112 352h25v-25h-25v25zM112 8h27l-7 -118h-16z" />
    <glyph glyph-name="less" unicode="&#x3c;" horiz-adv-x="438" 
d="M112 215v25l214 126v-25l-193 -113l193 -113v-25z" />
    <glyph glyph-name="equal" unicode="=" horiz-adv-x="452" 
d="M112 267h228v-22h-228v22zM112 110h228v-22h-228v22z" />
    <glyph glyph-name="greater" unicode="&#x3e;" horiz-adv-x="438" 
d="M112 90v25l193 113l-193 113v25l214 -126v-25z" />
    <glyph glyph-name="question" unicode="?" horiz-adv-x="535" 
d="M269 143q0 34 20 67t44.5 67.5t44.5 71t20 77.5q0 63 -31.5 85t-101.5 22q-48 0 -82.5 -12t-45.5 -52h-25q7 28 22.5 45t36 26t44.5 12t50 3q81 0 119.5 -28t38.5 -101q0 -41 -20.5 -78.5t-44.5 -73.5t-44.5 -69.5t-20.5 -64.5v-56h-24v59zM268 26h25v-26h-25v26z" />
    <glyph glyph-name="at" unicode="@" horiz-adv-x="685" 
d="M549 190q0 28 -7 54.5t-22.5 46.5t-41 33t-62.5 15q-38 -1 -64.5 -13.5t-42.5 -33t-23 -47t-7 -55.5v-34q0 -65 33.5 -102t102.5 -37q37 0 63 11t41.5 30t22.5 44t7 54v34zM136 16q0 -49 15 -77.5t36.5 -43.5t45 -19t40.5 -4h201q5 0 22 1t24 2v-21l-18 -2
q-8 -1 -16 -1.5t-14 -0.5h-200q-29 0 -57.5 7.5t-51 26.5t-37 50.5t-14.5 79.5v384q0 41 14.5 71.5t37.5 50.5t51.5 30t56.5 10h156q71 0 108 -34t37 -96v-430h-14l-3 61q-20 -25 -39 -38.5t-37.5 -19.5t-37 -7t-36.5 -1q-36 0 -64.5 11.5t-47.5 30.5t-29 44.5t-10 53.5v55
q0 81 40.5 127t108.5 46q14 0 30.5 -1.5t35 -7.5t38.5 -17.5t41 -31.5v101q0 29 -5 53t-19 41.5t-38 27.5t-62 10h-152q-17 0 -40.5 -5.5t-45 -22t-36.5 -46t-15 -77.5v-371z" />
    <glyph glyph-name="A" unicode="A" 
d="M401 0h-25l-43 148h-213l-43 -148h-25l160 550h29zM228 518l-101 -348h201z" />
    <glyph glyph-name="B" unicode="B" horiz-adv-x="457" 
d="M390 433q0 -26 -1 -51t-8 -47.5t-21.5 -40.5t-41.5 -29q24 -8 38 -20.5t21.5 -30t10 -39t2.5 -48.5q0 -45 -12 -70.5t-32 -38t-47.5 -15.5t-57.5 -3h-149v550h158q30 0 56 -6t44.5 -19.5t29 -36t10.5 -55.5zM366 135q0 35 -7 58.5t-22.5 37.5t-41.5 20t-64 6h-115v-235
h115q38 0 64 3.5t41.5 15.5t22.5 34.5t7 59.5zM366 413q0 36 -7 58.5t-22.5 35t-41.5 17t-64 4.5h-115v-249h115q38 0 64 5.5t41.5 20t22.5 38.5t7 60v10z" />
    <glyph glyph-name="C" unicode="C" horiz-adv-x="420" 
d="M72 272q0 93 23.5 149t57.5 85.5t73 39t70 9.5h20.5t21.5 -1v-21h-42q-44 0 -80.5 -15t-63 -47t-41.5 -81.5t-15 -118.5q0 -131 54.5 -192.5t169.5 -61.5h18v-22h-35q-40 0 -81 10.5t-74.5 41t-54.5 84.5t-21 141z" />
    <glyph glyph-name="D" unicode="D" horiz-adv-x="468" 
d="M244 550q68 0 107.5 -32.5t39.5 -101.5v-285q0 -65 -30 -98t-104 -33h-165v550h152zM367 409q0 60 -29 89.5t-105 29.5h-117v-506h135q39 0 62 9.5t35 26.5t15.5 41.5t3.5 53.5v256z" />
    <glyph glyph-name="E" unicode="E" horiz-adv-x="400" 
d="M116 528v-249h171v-22h-171v-235h207v-22h-231v550h231v-22h-207z" />
    <glyph glyph-name="F" unicode="F" horiz-adv-x="395" 
d="M92 0v550h231v-22h-207v-249h170v-22h-170v-257h-24z" />
    <glyph glyph-name="G" unicode="G" horiz-adv-x="515" 
d="M253 533q-46 0 -74.5 -9t-44.5 -27.5t-22 -47.5t-6 -68v-229q0 -30 6.5 -55t23 -42.5t45 -27.5t72.5 -10t72 11.5t44.5 31t23 45.5t6.5 55v84h-61v22h85v-266h-16l-3 67q-17 -25 -36 -39t-39.5 -21.5t-40 -9.5t-35.5 -2q-30 0 -60.5 6.5t-55 22t-40 40.5t-15.5 61v271
q0 52 13.5 83.5t37 48.5t54.5 22t66 5q36 0 66.5 -4.5t53 -16.5t35.5 -33.5t14 -55.5h-24q-4 28 -14 45.5t-27.5 27t-43.5 12.5t-60 3z" />
    <glyph glyph-name="H" unicode="H" horiz-adv-x="511" 
d="M395 0v257h-279v-257h-24v550h24v-271h279v271h24v-550h-24z" />
    <glyph glyph-name="I" unicode="I" horiz-adv-x="208" 
d="M92 550h24v-550h-24v550z" />
    <glyph glyph-name="J" unicode="J" horiz-adv-x="447" 
d="M74 96q0 -46 36 -62.5t92 -16.5q38 0 63 7.5t39.5 22.5t20.5 38t6 55v410h24v-416q0 -42 -11.5 -69t-32 -42.5t-48.5 -21.5t-60 -6q-43 0 -72 7.5t-47 21t-26 32t-8 41.5z" />
    <glyph glyph-name="K" unicode="K" horiz-adv-x="436" 
d="M372 0l-256 253v-253h-24v550h24v-247l252 247h35l-279 -272l282 -278h-34z" />
    <glyph glyph-name="L" unicode="L" horiz-adv-x="385" 
d="M116 22h214v-22h-238v550h24v-528z" />
    <glyph glyph-name="M" unicode="M" horiz-adv-x="592" 
d="M291 121l-175 355v-476h-24v550h16l188 -386l188 386h16v-550h-24v476l-175 -355h-10z" />
    <glyph glyph-name="N" unicode="N" horiz-adv-x="518" 
d="M402 550h24v-550h-23l-287 483v-483h-24v550h13l297 -503v503z" />
    <glyph glyph-name="O" unicode="O" horiz-adv-x="482" 
d="M242 17q76 0 105 33t29 97v275q0 62 -30 86.5t-105 24.5t-105 -24.5t-30 -86.5v-275q0 -64 29.5 -97t106.5 -33zM241 -5q-30 0 -58.5 6t-51 21.5t-36 41.5t-13.5 66v292q0 40 10 66t29.5 41t49.5 20.5t70 5.5t70 -5.5t49.5 -20.5t29.5 -41t10 -66v-292q0 -40 -13.5 -66
t-36 -41.5t-51 -21.5t-58.5 -6z" />
    <glyph glyph-name="P" unicode="P" horiz-adv-x="495" 
d="M92 550h157q72 0 113 -36t41 -120v-32q0 -43 -13 -73t-34 -49t-47.5 -27.5t-54.5 -8.5h-138v-204h-24v550zM379 395q0 30 -7 54.5t-23 42t-42 27t-63 9.5h-128v-302h128q37 0 63 10.5t42 29t23 43.5t7 54v32z" />
    <glyph glyph-name="Q" unicode="Q" horiz-adv-x="502" 
d="M251 -5q-30 0 -58.5 6t-51 21.5t-36 41.5t-13.5 66v292q0 40 10 66t29.5 41t49.5 20.5t70 5.5t70 -5.5t49.5 -20.5t29.5 -41t10 -66v-292q0 -60 -28.5 -89.5t-70.5 -39.5l74 -69l-17 -17l-86 82q-8 -1 -15.5 -1.5t-15.5 -0.5zM252 17q76 0 105 33t29 97v275
q0 62 -30 86.5t-105 24.5t-105 -24.5t-30 -86.5v-275q0 -64 29.5 -97t106.5 -33z" />
    <glyph glyph-name="R" unicode="R" horiz-adv-x="465" 
d="M403 362q0 -62 -26 -97.5t-63 -49.5l89 -215h-26l-86 208q-9 -2 -18.5 -3t-18.5 -1h-138v-204h-24v550h157q72 0 113 -36t41 -120v-32zM244 226q37 0 63 10.5t42 29t23 43.5t7 54v32q0 30 -7 54.5t-23 42t-42 27t-63 9.5h-128v-302h128z" />
    <glyph glyph-name="S" unicode="S" horiz-adv-x="439" 
d="M342 533h-60q-27 0 -59 -2t-60.5 -12t-47.5 -30t-19 -56q0 -21 20 -44.5t50 -48t65.5 -51t65.5 -53.5t50 -55.5t20 -56.5q0 -67 -43.5 -98t-119.5 -31q-21 0 -42 3q-18 2 -39.5 5.5t-40.5 9.5v19q26 -5 57 -10t61 -5q33 0 59 5t45 17t29 33t10 53q0 27 -20 52.5t-50 50.5
t-65.5 49.5t-65.5 50t-50 52t-20 56.5q0 19 8 40t28 38.5t53 29t84 11.5q17 0 41.5 -0.5t55.5 -2.5v-19z" />
    <glyph glyph-name="T" unicode="T" horiz-adv-x="410" 
d="M192 0v528h-120v22h266v-22h-122v-528h-24z" />
    <glyph glyph-name="U" unicode="U" horiz-adv-x="500" 
d="M250 -5q-36 0 -65 8t-50 27t-32 50t-11 76v394h24v-386q0 -72 29 -109.5t105 -37.5t105 37.5t29 109.5v386h24v-394q0 -45 -11 -76t-32 -50t-50 -27t-65 -8z" />
    <glyph glyph-name="V" unicode="V" horiz-adv-x="432" 
d="M231 0h-30l-149 550h25l139 -513l139 513h25z" />
    <glyph glyph-name="W" unicode="W" horiz-adv-x="688" 
d="M358 550l140 -527l113 527h25l-118 -550h-38l-136 511l-136 -511h-38l-118 550h25l113 -527l140 527h28z" />
    <glyph glyph-name="X" unicode="X" horiz-adv-x="408" 
d="M204 251l-135 -251h-27l149 277l-148 273h28l133 -247l133 247h28l-148 -273l149 -277h-27z" />
    <glyph glyph-name="Y" unicode="Y" horiz-adv-x="424" 
d="M337 550h25l-138 -344v-206h-24v206l-138 344h25l125 -309z" />
    <glyph glyph-name="Z" unicode="Z" horiz-adv-x="420" 
d="M82 0v32l229 496h-229v22h256v-23l-234 -505h234v-22h-256z" />
    <glyph glyph-name="bracketleft" unicode="[" horiz-adv-x="364" 
d="M112 691h140v-22h-116v-792h116v-22h-140v836z" />
    <glyph glyph-name="backslash" unicode="\" horiz-adv-x="459" 
d="M112 595h25l210 -646h-25z" />
    <glyph glyph-name="bracketright" unicode="]" horiz-adv-x="364" 
d="M252 -145h-140v22h116v792h-116v22h140v-836z" />
    <glyph glyph-name="asciicircum" unicode="^" horiz-adv-x="424" 
d="M199 550h26l87 -178h-26l-74 151l-74 -151h-26z" />
    <glyph glyph-name="underscore" unicode="_" horiz-adv-x="489" 
d="M112 -105h265v-22h-265v22z" />
    <glyph glyph-name="grave" unicode="`" horiz-adv-x="288" 
d="M112 550h32l32 -118h-16z" />
    <glyph glyph-name="a" unicode="a" 
d="M401 0h-25l-43 148h-213l-43 -148h-25l160 550h29zM228 518l-101 -348h201z" />
    <glyph glyph-name="b" unicode="b" horiz-adv-x="457" 
d="M390 433q0 -26 -1 -51t-8 -47.5t-21.5 -40.5t-41.5 -29q24 -8 38 -20.5t21.5 -30t10 -39t2.5 -48.5q0 -45 -12 -70.5t-32 -38t-47.5 -15.5t-57.5 -3h-149v550h158q30 0 56 -6t44.5 -19.5t29 -36t10.5 -55.5zM366 135q0 35 -7 58.5t-22.5 37.5t-41.5 20t-64 6h-115v-235
h115q38 0 64 3.5t41.5 15.5t22.5 34.5t7 59.5zM366 413q0 36 -7 58.5t-22.5 35t-41.5 17t-64 4.5h-115v-249h115q38 0 64 5.5t41.5 20t22.5 38.5t7 60v10z" />
    <glyph glyph-name="c" unicode="c" horiz-adv-x="420" 
d="M72 272q0 93 23.5 149t57.5 85.5t73 39t70 9.5h20.5t21.5 -1v-21h-42q-44 0 -80.5 -15t-63 -47t-41.5 -81.5t-15 -118.5q0 -131 54.5 -192.5t169.5 -61.5h18v-22h-35q-40 0 -81 10.5t-74.5 41t-54.5 84.5t-21 141z" />
    <glyph glyph-name="d" unicode="d" horiz-adv-x="468" 
d="M244 550q68 0 107.5 -32.5t39.5 -101.5v-285q0 -65 -30 -98t-104 -33h-165v550h152zM367 409q0 60 -29 89.5t-105 29.5h-117v-506h135q39 0 62 9.5t35 26.5t15.5 41.5t3.5 53.5v256z" />
    <glyph glyph-name="e" unicode="e" horiz-adv-x="400" 
d="M116 528v-249h171v-22h-171v-235h207v-22h-231v550h231v-22h-207z" />
    <glyph glyph-name="f" unicode="f" horiz-adv-x="395" 
d="M92 0v550h231v-22h-207v-249h170v-22h-170v-257h-24z" />
    <glyph glyph-name="g" unicode="g" horiz-adv-x="515" 
d="M253 533q-46 0 -74.5 -9t-44.5 -27.5t-22 -47.5t-6 -68v-229q0 -30 6.5 -55t23 -42.5t45 -27.5t72.5 -10t72 11.5t44.5 31t23 45.5t6.5 55v84h-61v22h85v-266h-16l-3 67q-17 -25 -36 -39t-39.5 -21.5t-40 -9.5t-35.5 -2q-30 0 -60.5 6.5t-55 22t-40 40.5t-15.5 61v271
q0 52 13.5 83.5t37 48.5t54.5 22t66 5q36 0 66.5 -4.5t53 -16.5t35.5 -33.5t14 -55.5h-24q-4 28 -14 45.5t-27.5 27t-43.5 12.5t-60 3z" />
    <glyph glyph-name="h" unicode="h" horiz-adv-x="511" 
d="M395 0v257h-279v-257h-24v550h24v-271h279v271h24v-550h-24z" />
    <glyph glyph-name="i" unicode="i" horiz-adv-x="208" 
d="M92 550h24v-550h-24v550z" />
    <glyph glyph-name="j" unicode="j" horiz-adv-x="447" 
d="M74 96q0 -46 36 -62.5t92 -16.5q38 0 63 7.5t39.5 22.5t20.5 38t6 55v410h24v-416q0 -42 -11.5 -69t-32 -42.5t-48.5 -21.5t-60 -6q-43 0 -72 7.5t-47 21t-26 32t-8 41.5z" />
    <glyph glyph-name="k" unicode="k" horiz-adv-x="436" 
d="M372 0l-256 253v-253h-24v550h24v-247l252 247h35l-279 -272l282 -278h-34z" />
    <glyph glyph-name="l" unicode="l" horiz-adv-x="385" 
d="M116 22h214v-22h-238v550h24v-528z" />
    <glyph glyph-name="m" unicode="m" horiz-adv-x="592" 
d="M291 121l-175 355v-476h-24v550h16l188 -386l188 386h16v-550h-24v476l-175 -355h-10z" />
    <glyph glyph-name="n" unicode="n" horiz-adv-x="518" 
d="M402 550h24v-550h-23l-287 483v-483h-24v550h13l297 -503v503z" />
    <glyph glyph-name="o" unicode="o" horiz-adv-x="482" 
d="M242 17q76 0 105 33t29 97v275q0 62 -30 86.5t-105 24.5t-105 -24.5t-30 -86.5v-275q0 -64 29.5 -97t106.5 -33zM241 -5q-30 0 -58.5 6t-51 21.5t-36 41.5t-13.5 66v292q0 40 10 66t29.5 41t49.5 20.5t70 5.5t70 -5.5t49.5 -20.5t29.5 -41t10 -66v-292q0 -40 -13.5 -66
t-36 -41.5t-51 -21.5t-58.5 -6z" />
    <glyph glyph-name="p" unicode="p" horiz-adv-x="465" 
d="M92 550h157q72 0 113 -36t41 -120v-32q0 -43 -13 -73t-34 -49t-47.5 -27.5t-54.5 -8.5h-138v-204h-24v550zM379 395q0 30 -7 54.5t-23 42t-42 27t-63 9.5h-128v-302h128q37 0 63 10.5t42 29t23 43.5t7 54v32z" />
    <glyph glyph-name="q" unicode="q" horiz-adv-x="502" 
d="M251 -5q-30 0 -58.5 6t-51 21.5t-36 41.5t-13.5 66v292q0 40 10 66t29.5 41t49.5 20.5t70 5.5t70 -5.5t49.5 -20.5t29.5 -41t10 -66v-292q0 -60 -28.5 -89.5t-70.5 -39.5l74 -69l-17 -17l-86 82q-8 -1 -15.5 -1.5t-15.5 -0.5zM252 17q76 0 105 33t29 97v275
q0 62 -30 86.5t-105 24.5t-105 -24.5t-30 -86.5v-275q0 -64 29.5 -97t106.5 -33z" />
    <glyph glyph-name="r" unicode="r" horiz-adv-x="465" 
d="M403 362q0 -62 -26 -97.5t-63 -49.5l89 -215h-26l-86 208q-9 -2 -18.5 -3t-18.5 -1h-138v-204h-24v550h157q72 0 113 -36t41 -120v-32zM244 226q37 0 63 10.5t42 29t23 43.5t7 54v32q0 30 -7 54.5t-23 42t-42 27t-63 9.5h-128v-302h128z" />
    <glyph glyph-name="s" unicode="s" horiz-adv-x="439" 
d="M342 533h-60q-27 0 -59 -2t-60.5 -12t-47.5 -30t-19 -56q0 -21 20 -44.5t50 -48t65.5 -51t65.5 -53.5t50 -55.5t20 -56.5q0 -67 -43.5 -98t-119.5 -31q-21 0 -42 3q-18 2 -39.5 5.5t-40.5 9.5v19q26 -5 57 -10t61 -5q33 0 59 5t45 17t29 33t10 53q0 27 -20 52.5t-50 50.5
t-65.5 49.5t-65.5 50t-50 52t-20 56.5q0 19 8 40t28 38.5t53 29t84 11.5q17 0 41.5 -0.5t55.5 -2.5v-19z" />
    <glyph glyph-name="t" unicode="t" horiz-adv-x="410" 
d="M192 0v528h-120v22h266v-22h-122v-528h-24z" />
    <glyph glyph-name="u" unicode="u" horiz-adv-x="500" 
d="M250 -5q-36 0 -65 8t-50 27t-32 50t-11 76v394h24v-386q0 -72 29 -109.5t105 -37.5t105 37.5t29 109.5v386h24v-394q0 -45 -11 -76t-32 -50t-50 -27t-65 -8z" />
    <glyph glyph-name="v" unicode="v" horiz-adv-x="432" 
d="M231 0h-30l-149 550h25l139 -513l139 513h25z" />
    <glyph glyph-name="w" unicode="w" horiz-adv-x="688" 
d="M358 550l140 -527l113 527h25l-118 -550h-38l-136 511l-136 -511h-38l-118 550h25l113 -527l140 527h28z" />
    <glyph glyph-name="x" unicode="x" horiz-adv-x="408" 
d="M204 251l-135 -251h-27l149 277l-148 273h28l133 -247l133 247h28l-148 -273l149 -277h-27z" />
    <glyph glyph-name="y" unicode="y" horiz-adv-x="424" 
d="M337 550h25l-138 -344v-206h-24v206l-138 344h25l125 -309z" />
    <glyph glyph-name="z" unicode="z" horiz-adv-x="420" 
d="M82 0v32l229 496h-229v22h256v-23l-234 -505h234v-22h-256z" />
    <glyph glyph-name="braceleft" unicode="{" horiz-adv-x="455" 
d="M112 296q42 14 67 44.5t25 86.5v128q0 27 5 52t17 43.5t32.5 29.5t52.5 11h32v-22h-30q-18 0 -33.5 -5t-27 -18t-18 -36.5t-6.5 -59.5v-135q0 -13 -2 -29.5t-9.5 -34t-22 -35t-40.5 -32.5q26 -15 40.5 -32.5t22 -35t9.5 -34t2 -29.5v-157q0 -36 6.5 -59.5t18 -36.5
t27 -18t33.5 -5h30v-22h-32q-32 0 -52.5 11t-32.5 29.5t-17 43.5t-5 52v150q0 56 -25 86.5t-67 44.5v24z" />
    <glyph glyph-name="bar" unicode="|" horiz-adv-x="248" 
d="M112 595h24v-646h-24v646z" />
    <glyph glyph-name="braceright" unicode="}" horiz-adv-x="455" 
d="M343 272q-42 -14 -67 -44.5t-25 -86.5v-150q0 -27 -5 -52t-17 -43.5t-33 -29.5t-52 -11h-32v22h30q18 0 33.5 5t27 18t18 36.5t6.5 59.5v157q0 13 2 29.5t9.5 34t22 35t40.5 32.5q-26 15 -40.5 32.5t-22 35t-9.5 34t-2 29.5v135q0 36 -6.5 59.5t-18 36.5t-27 18t-33.5 5
h-30v22h32q31 0 52 -11t33 -29.5t17 -43.5t5 -52v-128q0 -56 25 -86.5t67 -44.5v-24z" />
    <glyph glyph-name="asciitilde" unicode="~" horiz-adv-x="481" 
d="M369 214q-13 -5 -24 -6t-19 -1q-18 0 -36 7.5t-36 16.5t-36.5 16.5t-38.5 7.5q-33 0 -67 -14v22q19 11 37 12.5t34 1.5q21 0 39 -7.5t35.5 -16.5t35 -16.5t37.5 -7.5q16 0 39 6v-21z" />
    <glyph glyph-name="uni00A0" unicode="&#xa0;" horiz-adv-x="641" 
 />
    <glyph glyph-name="exclamdown" unicode="&#xa1;" horiz-adv-x="254" 
d="M119 323h16l7 -470h-30zM114 403h25v-26h-25v26z" />
    <glyph glyph-name="cent" unicode="&#xa2;" horiz-adv-x="490" 
d="M336 533q-44 0 -80.5 -15t-63 -47t-41.5 -81.5t-15 -118.5q0 -131 54.5 -192.5t169.5 -61.5h18v-22h-35h-16.5t-16.5 1v-78h-17v80q-35 6 -67.5 21.5t-57.5 47t-40.5 81.5t-15.5 124q0 78 17 129.5t43 83t58.5 46.5t62.5 20v80h17v-78q7 1 13.5 1.5t12.5 0.5h20.5
t21.5 -1v-21h-42v0z" />
    <glyph glyph-name="sterling" unicode="&#xa3;" horiz-adv-x="546" 
d="M112 260h84q0 96 19.5 154t48.5 89.5t61.5 41.5t58.5 10h14t13 -1v-21q-56 0 -92.5 -21.5t-58.5 -58t-31 -86.5t-9 -107h146v-22h-146v-216h214v-22h-238v238h-84v22z" />
    <glyph glyph-name="currency" unicode="&#xa4;" horiz-adv-x="478" 
d="M239 105q42 0 71 29t29 71t-29 71t-71 29t-71 -29t-29 -71t29 -71t71 -29zM239 90q-23 0 -42.5 8.5t-35.5 22.5l-37 -37l-12 10l38 39q-26 32 -26 72q0 20 7 38.5t18 33.5l-37 38l12 10l36 -36q16 14 36 22.5t43 8.5t43 -8.5t36 -22.5l36 36l12 -10l-37 -38
q11 -15 18 -33.5t7 -38.5q0 -40 -26 -72l38 -39l-12 -10l-37 37q-16 -14 -35.5 -22.5t-42.5 -8.5z" />
    <glyph glyph-name="yen" unicode="&#xa5;" horiz-adv-x="524" 
d="M288 240h100v-22h-109l-5 -12v-92h114v-22h-114v-92h-24v92h-115v22h115v92l-5 12h-110v22h101l-124 310h25l125 -309l125 309h25z" />
    <glyph glyph-name="brokenbar" unicode="&#xa6;" horiz-adv-x="248" 
d="M112 136h24v-187h-24v187zM112 595h24v-187h-24v187z" />
    <glyph glyph-name="section" unicode="&#xa7;" horiz-adv-x="605" 
d="M468 533h-60q-27 0 -59 -2t-60.5 -12t-47.5 -30t-19 -56q0 -21 20 -44.5t50 -48t65.5 -51t65.5 -53.5t50 -55.5t20 -56.5q0 -67 -43.5 -98t-119.5 -31q-8 0 -19 1q-9 1 -20.5 2t-24.5 3q26 -20 51 -40.5t45 -42t32.5 -43.5t12.5 -44q0 -67 -43.5 -98t-119.5 -31
q-21 0 -42 3q-18 2 -39.5 5.5t-40.5 9.5v19q26 -5 57 -10t61 -5q33 0 59 5t45 17t29 33t10 53q0 24 -16.5 47t-42 45t-56 44t-59.5 44q-40 31 -68.5 63t-28.5 68q0 19 8 40t28 38.5t53 29t84 11.5h31t40 -1l-14 10q-27 19 -52.5 38.5t-46 40t-33 42t-12.5 44.5q0 19 8 40
t28 38.5t53 29t84 11.5q17 0 41.5 -0.5t55.5 -2.5v-19zM326 17q33 0 59 5t45 17t29 33t10 53q0 15 -10.5 35t-30 38t-46.5 30t-60 12q-27 0 -59 -2t-60.5 -12t-47.5 -30t-19 -56q0 -27 19 -49.5t47.5 -39t62 -25.5t61.5 -9z" />
    <glyph glyph-name="dieresis" unicode="&#xa8;" horiz-adv-x="374" 
d="M112 550h25v-26h-25v26zM237 550h25v-26h-25v26z" />
    <glyph glyph-name="copyright" unicode="&#xa9;" horiz-adv-x="795" 
d="M397 561q59 0 111 -22.5t91 -61.5t61.5 -91t22.5 -111t-22.5 -111t-61.5 -90.5t-91 -61t-111 -22.5t-111 22.5t-90.5 61t-61 90.5t-22.5 111t22.5 111t61 91t90.5 61.5t111 22.5zM396 8q56 0 105 21t85.5 57t57.5 84.5t21 102.5q0 56 -21 105t-57.5 86t-85.5 58t-105 21
q-54 0 -102.5 -21t-84.5 -58t-57 -86t-21 -105q0 -54 21 -102.5t57 -84.5t84.5 -57t102.5 -21zM285 275q0 51 15 81.5t35.5 47t42.5 21.5t36 5q8 0 16.5 -0.5t16.5 -0.5v-22h-29q-49 0 -78.5 -33t-29.5 -100q0 -65 32 -98.5t89 -33.5h8.5t7.5 1v-19q-5 -1 -9 -1h-16
q-22 0 -46 6.5t-44.5 23t-33.5 46t-13 76.5z" />
    <glyph glyph-name="ordfeminine" unicode="&#xaa;" horiz-adv-x="401" 
d="M121 541q23 8 44.5 11t39.5 3q25 0 41.5 -5t26 -16.5t13 -30.5t3.5 -48v-152h-21v35q-12 -12 -25.5 -18.5t-25 -10t-20 -4t-11.5 -0.5q-22 0 -36.5 7.5t-22.5 19t-11.5 25.5t-3.5 26q0 24 12 39t30 22.5t40.5 10t43.5 2.5q8 0 15.5 -0.5t14.5 -0.5q0 16 -1 30.5t-8 25
t-21 16.5t-39 6q-11 0 -32 -4t-41 -9zM133 382q0 -25 14.5 -40.5t41.5 -15.5q21 0 44 13t35 30v67h-4q-74 0 -102.5 -12.5t-28.5 -41.5z" />
    <glyph glyph-name="guillemotleft" unicode="&#xab;" horiz-adv-x="625" 
d="M419 227l94 -227h-27q-24 60 -47 114t-47 113q24 59 47 113t47 114h27zM139 227l94 -227h-27q-24 60 -47 114t-47 113q24 59 47 113t47 114h27z" />
    <glyph glyph-name="logicalnot" unicode="&#xac;" horiz-adv-x="558" 
d="M112 260h334v-150h-24v128h-310v22z" />
    <glyph glyph-name="uni00AD" unicode="&#xad;" horiz-adv-x="513" 
 />
    <glyph glyph-name="registered" unicode="&#xae;" horiz-adv-x="795" 
d="M397 561q59 0 111 -22.5t91 -61.5t61.5 -91t22.5 -111t-22.5 -111t-61.5 -90.5t-91 -61t-111 -22.5t-111 22.5t-90.5 61t-61 90.5t-22.5 111t22.5 111t61 91t90.5 61.5t111 22.5zM396 8q56 0 105 21t85.5 57t57.5 84.5t21 102.5q0 56 -21 105t-57.5 86t-85.5 58t-105 21
q-54 0 -102.5 -21t-84.5 -58t-57 -86t-21 -105q0 -54 21 -102.5t57 -84.5t84.5 -57t102.5 -21zM439 228h-109v-105h-25v308h113q38 0 62 -20.5t26 -62.5v-21q0 -39 -12.5 -59t-29.5 -36l44 -109h-27zM481 356q0 20 -15.5 38t-45.5 18h-90v-165h100q13 0 22.5 6t16 15.5
t9.5 21t3 21.5v45z" />
    <glyph glyph-name="macron" unicode="&#xaf;" horiz-adv-x="477" 
d="M112 550h253v-22h-253v22z" />
    <glyph glyph-name="degree" unicode="&#xb0;" horiz-adv-x="360" 
d="M180 550q38 0 53 -24t15 -56q0 -33 -18 -55.5t-50 -22.5t-50 22.5t-18 55.5q0 32 15 56t53 24zM180 412q14 0 23 6t14.5 15t7.5 19t2 19q0 7 -0.5 17.5t-5 19.5t-14 15.5t-27.5 6.5t-27.5 -6.5t-14 -15.5t-5 -19.5t-0.5 -17.5q0 -9 2 -19t7 -19t14.5 -15t23.5 -6z" />
    <glyph glyph-name="plusminus" unicode="&#xb1;" horiz-adv-x="544" 
d="M260 309h-148v22h148v173h24v-173h148v-22h-148v-158h-24v158zM112 22h320v-22h-320v22z" />
    <glyph glyph-name="twosuperior" unicode="&#xb2;" horiz-adv-x="384" 
d="M113 478v4q0 21 8 34t19.5 20.5t24 10.5t22.5 3q13 0 27.5 -2.5t25.5 -10t18.5 -20t7.5 -31.5q0 -20 -11 -41t-28.5 -41.5t-39.5 -40.5t-44 -39h129v-22h-160v22q15 14 37.5 33.5t44 41.5t36.5 44.5t15 43.5q0 24 -17 33.5t-40 9.5q-29 0 -41.5 -16.5t-12.5 -30.5v-5h-21
z" />
    <glyph glyph-name="threesuperior" unicode="&#xb3;" horiz-adv-x="394" 
d="M196 441q12 0 23.5 1.5t21 5.5t15 12t5.5 22q0 12 -1.5 21.5t-8.5 16t-21 10.5t-38 4q-25 0 -39.5 -7.5t-17.5 -25.5h-23q4 54 80 54q49 0 69.5 -15.5t20.5 -44.5q0 -17 -4 -36t-26 -28q22 -15 26 -31t4 -33q0 -29 -19 -44.5t-71 -15.5q-38 0 -57 14t-23 40h23
q3 -18 17.5 -25.5t39.5 -7.5q24 0 38 4t20.5 10.5t8.5 16t2 21.5q0 14 -5.5 22t-15 12t-21 5.5t-23.5 1.5v20z" />
    <glyph glyph-name="acute" unicode="&#xb4;" horiz-adv-x="284" 
d="M128 432h-16l28 118h32z" />
    <glyph glyph-name="mu" unicode="&#xb5;" horiz-adv-x="540" 
d="M112 550h24v-392q0 -33 6.5 -59t22.5 -44t42 -28t64 -10q75 0 104 37.5t29 120.5v375h24v-404q0 -45 -13.5 -74.5t-36 -46.5t-50.5 -23.5t-57 -6.5q-3 0 -20 1t-38.5 6t-43 15.5t-33.5 30.5v-282h-24v784z" />
    <glyph glyph-name="paragraph" unicode="&#xb6;" horiz-adv-x="689" 
d="M553 -232v760h-211v-760h-24v391q-47 0 -85 19t-65 48.5t-41.5 65t-14.5 68.5q0 36 13 70t35.5 60.5t52.5 43t64 16.5h300v-782h-24z" />
    <glyph glyph-name="periodcentered" unicode="&#xb7;" horiz-adv-x="249" 
d="M112 232h25v-25h-25v25z" />
    <glyph glyph-name="cedilla" unicode="&#xb8;" horiz-adv-x="284" 
d="M156 -66h16l-28 -118h-32z" />
    <glyph glyph-name="onesuperior" unicode="&#xb9;" horiz-adv-x="296" 
d="M163 318v207l-51 -17v22l60 20h12v-232h-21z" />
    <glyph glyph-name="ordmasculine" unicode="&#xba;" horiz-adv-x="360" 
d="M180 550q38 0 53 -24t15 -56q0 -33 -18 -55.5t-50 -22.5t-50 22.5t-18 55.5q0 32 15 56t53 24zM180 412q14 0 23 6t14.5 15t7.5 19t2 19q0 7 -0.5 17.5t-5 19.5t-14 15.5t-27.5 6.5t-27.5 -6.5t-14 -15.5t-5 -19.5t-0.5 -17.5q0 -9 2 -19t7 -19t14.5 -15t23.5 -6z" />
    <glyph glyph-name="guillemotright" unicode="&#xbb;" horiz-adv-x="625" 
d="M112 454h27q24 -60 47 -114t47 -113q-24 -59 -47 -113t-47 -114h-27l94 227zM392 454h27q24 -60 47 -114t47 -113q-24 -59 -47 -113t-47 -114h-27l94 227z" />
    <glyph glyph-name="onequarter" unicode="&#xbc;" horiz-adv-x="641" 
d="M529 84h-20v163h-30l-125 -163v-20h134v-64h21v64h20v20zM381 84l107 141v-141h-107zM224 0h-20l174 550h20zM184 318v232h-12l-60 -20v-22l51 17v-207h21z" />
    <glyph glyph-name="onehalf" unicode="&#xbd;" horiz-adv-x="664" 
d="M393 176v4q0 21 8 34t19.5 20.5t24 10.5t22.5 3q13 0 27.5 -2.5t25.5 -10t18.5 -20t7.5 -31.5q0 -20 -11 -41t-28.5 -41.5t-39.5 -40.5t-44 -39h129v-22h-160v22q15 14 37.5 33.5t44 41.5t36.5 44.5t15 43.5q0 24 -17 33.5t-40 9.5q-29 0 -41.5 -16.5t-12.5 -30.5v-5h-21
zM163 318v207l-51 -17v22l60 20h12v-232h-21zM226 0h-20l174 550h20z" />
    <glyph glyph-name="threequarters" unicode="&#xbe;" horiz-adv-x="715" 
d="M603 64h-20v-64h-21v64h-134v20l125 163h30v-163h20v-20zM562 84v141l-107 -141h107zM298 0h-20l174 550h20zM196 441q12 0 23.5 1.5t21 5.5t15 12t5.5 22q0 12 -1.5 21.5t-8.5 16t-21 10.5t-38 4q-25 0 -39.5 -7.5t-17.5 -25.5h-23q4 54 80 54q49 0 69.5 -15.5
t20.5 -44.5q0 -17 -4 -36t-26 -28q22 -15 26 -31t4 -33q0 -29 -19 -44.5t-71 -15.5q-38 0 -57 14t-23 40h23q3 -18 17.5 -25.5t39.5 -7.5q24 0 38 4t20.5 10.5t8.5 16t2 21.5q0 14 -5.5 22t-15 12t-21 5.5t-23.5 1.5v20z" />
    <glyph glyph-name="questiondown" unicode="&#xbf;" horiz-adv-x="535" 
d="M266 412q0 -34 -20 -67t-44.5 -67.5t-44.5 -71t-20 -77.5q0 -32 7.5 -52.5t23.5 -32.5t41.5 -17t60.5 -5q48 0 82.5 12t45.5 52h25q-7 -28 -22.5 -45t-36 -26t-45 -12t-49.5 -3q-81 0 -119.5 28t-38.5 101q0 40 20.5 78t44.5 74t44.5 69t20.5 65v56h24v-59zM267 529h-25
v26h25v-26z" />
    <glyph glyph-name="Agrave" unicode="&#xc0;" 
d="M401 0h-25l-43 148h-213l-43 -148h-25l160 550h29zM228 518l-101 -348h201zM175 731h32l28 -118h-16z" />
    <glyph glyph-name="Aacute" unicode="&#xc1;" 
d="M401 0h-25l-43 148h-213l-43 -148h-25l160 550h29zM228 518l-101 -348h201zM235 613h-16l28 118h32z" />
    <glyph glyph-name="Acircumflex" unicode="&#xc2;" 
d="M241 550h-29l-160 -550h25l43 148h213l43 -148h25zM328 170h-201l101 348zM237 742l57 -129h-23l-43 98l-43 -98h-23l57 129h18z" />
    <glyph glyph-name="Atilde" unicode="&#xc3;" 
d="M349 621q-13 -6 -23 -7t-18 -1q-17 0 -33 6t-32 12.5t-32 12.5t-34 6q-17 0 -33 -3t-34 -11v23q19 10 33.5 11.5t33.5 1.5q17 0 34.5 -6t34.5 -12.5t33 -12.5t30 -6q16 0 40 6v-20zM401 0h-25l-43 148h-213l-43 -148h-25l160 550h29zM228 518l-101 -348h201z" />
    <glyph glyph-name="Adieresis" unicode="&#xc4;" 
d="M401 0h-25l-43 148h-213l-43 -148h-25l160 550h29zM228 518l-101 -348h201zM153 639h25v-26h-25v26zM278 639h25v-26h-25v26z" />
    <glyph glyph-name="Aring" unicode="&#xc5;" 
d="M401 0h-25l-43 148h-213l-43 -148h-25l160 550h29zM228 518l-101 -348h201zM228 771q38 0 53 -24t15 -56q0 -33 -18 -55.5t-50 -22.5t-50 22.5t-18 55.5q0 32 15 56t53 24zM228 633q14 0 23 6t14.5 15t7.5 19t2 19q0 7 -0.5 17.5t-5 19.5t-14 15.5t-27.5 6.5t-27.5 -6.5
t-14 -15.5t-5 -19.5t-0.5 -17.5q0 -9 2 -19t7 -19t14.5 -15t23.5 -6z" />
    <glyph glyph-name="AE" unicode="&#xc6;" horiz-adv-x="753" 
d="M469 528v-249h171v-22h-171v-235h207v-22h-231v148h-258l-106 -148h-29l389 550h235v-22h-207zM445 514l-243 -344h243v344z" />
    <glyph glyph-name="Ccedilla" unicode="&#xc7;" horiz-adv-x="420" 
d="M211 -184h32l28 118h-16zM72 272q0 93 23.5 149t57.5 85.5t73 39t70 9.5h20.5t21.5 -1v-21h-42q-44 0 -80.5 -15t-63 -47t-41.5 -81.5t-15 -118.5q0 -131 54.5 -192.5t169.5 -61.5h18v-22h-35q-40 0 -81 10.5t-74.5 41t-54.5 84.5t-21 141z" />
    <glyph glyph-name="Egrave" unicode="&#xc8;" horiz-adv-x="400" 
d="M116 528v-249h171v-22h-171v-235h207v-22h-231v550h231v-22h-207zM161 731h32l28 -118h-16z" />
    <glyph glyph-name="Eacute" unicode="&#xc9;" horiz-adv-x="400" 
d="M116 528v-249h171v-22h-171v-235h207v-22h-231v550h231v-22h-207zM220 613h-16l28 118h32z" />
    <glyph glyph-name="Ecircumflex" unicode="&#xca;" horiz-adv-x="400" 
d="M323 528v22h-231v-550h231v22h-207v235h171v22h-171v249h207zM218 742l57 -129h-23l-43 98l-43 -98h-23l57 129h18z" />
    <glyph glyph-name="Edieresis" unicode="&#xcb;" horiz-adv-x="400" 
d="M116 528v-249h171v-22h-171v-235h207v-22h-231v550h231v-22h-207zM135 639h25v-26h-25v26zM260 639h25v-26h-25v26z" />
    <glyph glyph-name="Igrave" unicode="&#xcc;" horiz-adv-x="208" 
d="M92 550h24v-550h-24v550zM53 731h32l28 -118h-16z" />
    <glyph glyph-name="Iacute" unicode="&#xcd;" horiz-adv-x="208" 
d="M116 0h-24v550h24v-550zM111 613h-16l28 118h32z" />
    <glyph glyph-name="Icircumflex" unicode="&#xce;" horiz-adv-x="208" 
d="M116 550h-24v-550h24v550zM113 742l57 -129h-23l-43 98l-43 -98h-23l57 129h18z" />
    <glyph glyph-name="Idieresis" unicode="&#xcf;" horiz-adv-x="208" 
d="M116 0h-24v550h24v-550zM56 639h25v-26h-25v26zM128 639h25v-26h-25v26z" />
    <glyph glyph-name="Eth" unicode="&#xd0;" horiz-adv-x="494" 
d="M52 276h66v274h152q68 0 107.5 -32.5t39.5 -101.5v-285q0 -65 -30 -98t-104 -33h-165v254h-66v22zM393 409q0 60 -29 89.5t-105 29.5h-117v-252h80v-22h-80v-232h135q39 0 62 9.5t35 26.5t15.5 41.5t3.5 53.5v256z" />
    <glyph glyph-name="Ntilde" unicode="&#xd1;" horiz-adv-x="518" 
d="M402 550h24v-550h-23l-287 483v-483h-24v550h13l297 -503v503zM373 621q-13 -6 -23 -7t-18 -1q-17 0 -33 6t-32 12.5t-32 12.5t-34 6q-17 0 -33 -3t-34 -11v23q19 10 33.5 11.5t33.5 1.5q17 0 34.5 -6t34.5 -12.5t33 -12.5t30 -6q16 0 40 6v-20z" />
    <glyph glyph-name="Ograve" unicode="&#xd2;" horiz-adv-x="482" 
d="M242 17q76 0 105 33t29 97v275q0 62 -30 86.5t-105 24.5t-105 -24.5t-30 -86.5v-275q0 -64 29.5 -97t106.5 -33zM241 -5q-30 0 -58.5 6t-51 21.5t-36 41.5t-13.5 66v292q0 40 10 66t29.5 41t49.5 20.5t70 5.5t70 -5.5t49.5 -20.5t29.5 -41t10 -66v-292q0 -40 -13.5 -66
t-36 -41.5t-51 -21.5t-58.5 -6zM190 731h32l28 -118h-16z" />
    <glyph glyph-name="Oacute" unicode="&#xd3;" horiz-adv-x="482" 
d="M242 17q76 0 105 33t29 97v275q0 62 -30 86.5t-105 24.5t-105 -24.5t-30 -86.5v-275q0 -64 29.5 -97t106.5 -33zM241 -5q-30 0 -58.5 6t-51 21.5t-36 41.5t-13.5 66v292q0 40 10 66t29.5 41t49.5 20.5t70 5.5t70 -5.5t49.5 -20.5t29.5 -41t10 -66v-292q0 -40 -13.5 -66
t-36 -41.5t-51 -21.5t-58.5 -6zM253 613h-16l28 118h32z" />
    <glyph glyph-name="Ocircumflex" unicode="&#xd4;" horiz-adv-x="482" 
d="M242 17q-77 0 -106.5 33t-29.5 97v275q0 62 30 86.5t105 24.5t105 -24.5t30 -86.5v-275q0 -64 -29 -97t-105 -33zM241 -5q30 0 58.5 6t51 21.5t36 41.5t13.5 66v292q0 40 -10 66t-29.5 41t-49.5 20.5t-70 5.5t-70 -5.5t-49.5 -20.5t-29.5 -41t-10 -66v-292
q0 -40 13.5 -66t36 -41.5t51 -21.5t58.5 -6zM250 742l57 -129h-23l-43 98l-43 -98h-23l57 129h18z" />
    <glyph glyph-name="Otilde" unicode="&#xd5;" horiz-adv-x="482" 
d="M242 17q76 0 105 33t29 97v275q0 62 -30 86.5t-105 24.5t-105 -24.5t-30 -86.5v-275q0 -64 29.5 -97t106.5 -33zM241 -5q-30 0 -58.5 6t-51 21.5t-36 41.5t-13.5 66v292q0 40 10 66t29.5 41t49.5 20.5t70 5.5t70 -5.5t49.5 -20.5t29.5 -41t10 -66v-292q0 -40 -13.5 -66
t-36 -41.5t-51 -21.5t-58.5 -6zM363 621q-13 -6 -23 -7t-18 -1q-17 0 -33 6t-32 12.5t-32 12.5t-34 6q-17 0 -33 -3t-34 -11v23q19 10 33.5 11.5t33.5 1.5q17 0 34.5 -6t34.5 -12.5t33 -12.5t30 -6q16 0 40 6v-20z" />
    <glyph glyph-name="Odieresis" unicode="&#xd6;" horiz-adv-x="482" 
d="M242 17q76 0 105 33t29 97v275q0 62 -30 86.5t-105 24.5t-105 -24.5t-30 -86.5v-275q0 -64 29.5 -97t106.5 -33zM241 -5q-30 0 -58.5 6t-51 21.5t-36 41.5t-13.5 66v292q0 40 10 66t29.5 41t49.5 20.5t70 5.5t70 -5.5t49.5 -20.5t29.5 -41t10 -66v-292q0 -40 -13.5 -66
t-36 -41.5t-51 -21.5t-58.5 -6zM165 639h25v-26h-25v26zM290 639h25v-26h-25v26z" />
    <glyph glyph-name="multiply" unicode="&#xd7;" horiz-adv-x="476" 
d="M131 85l-18 17l107 103l-108 104l18 17l108 -103l108 103l18 -17l-108 -104l107 -103l-18 -17l-107 103z" />
    <glyph glyph-name="Oslash" unicode="&#xd8;" horiz-adv-x="482" 
d="M338 542q31 -13 46.5 -41t15.5 -79v-292q0 -40 -13.5 -66t-36 -41.5t-51 -21.5t-58.5 -6q-21 0 -41.5 3t-39.5 10l-23 -69h-22l26 77q-26 15 -42.5 42t-16.5 72v292q0 40 10 66t29.5 41t49.5 20.5t70 5.5q49 0 78 -7l28 82h20zM106 147q0 -38 10 -65t33 -43l163 486
q-14 5 -31.5 6.5t-39.5 1.5q-75 0 -105 -24.5t-30 -86.5v-275zM376 422q0 38 -10.5 61.5t-35.5 35.5l-163 -490q28 -12 75 -12q76 0 105 33t29 97v275z" />
    <glyph glyph-name="Ugrave" unicode="&#xd9;" horiz-adv-x="500" 
d="M250 -5q-36 0 -65 8t-50 27t-32 50t-11 76v394h24v-386q0 -72 29 -109.5t105 -37.5t105 37.5t29 109.5v386h24v-394q0 -45 -11 -76t-32 -50t-50 -27t-65 -8zM192 731h32l28 -118h-16z" />
    <glyph glyph-name="Uacute" unicode="&#xda;" horiz-adv-x="500" 
d="M250 -5q-36 0 -65 8t-50 27t-32 50t-11 76v394h24v-386q0 -72 29 -109.5t105 -37.5t105 37.5t29 109.5v386h24v-394q0 -45 -11 -76t-32 -50t-50 -27t-65 -8zM264 613h-16l28 118h32z" />
    <glyph glyph-name="Ucircumflex" unicode="&#xdb;" horiz-adv-x="500" 
d="M250 -5q36 0 65 8t50 27t32 50t11 76v394h-24v-386q0 -72 -29 -109.5t-105 -37.5t-105 37.5t-29 109.5v386h-24v-394q0 -45 11 -76t32 -50t50 -27t65 -8zM258 742l57 -129h-23l-43 98l-43 -98h-23l57 129h18z" />
    <glyph glyph-name="Udieresis" unicode="&#xdc;" horiz-adv-x="500" 
d="M250 -5q-36 0 -65 8t-50 27t-32 50t-11 76v394h24v-386q0 -72 29 -109.5t105 -37.5t105 37.5t29 109.5v386h24v-394q0 -45 -11 -76t-32 -50t-50 -27t-65 -8zM174 639h25v-26h-25v26zM299 639h25v-26h-25v26z" />
    <glyph glyph-name="Yacute" unicode="&#xdd;" horiz-adv-x="424" 
d="M337 550h25l-138 -344v-206h-24v206l-138 344h25l125 -309zM222 613h-16l28 118h32z" />
    <glyph glyph-name="Thorn" unicode="&#xde;" horiz-adv-x="465" 
d="M92 550h24v-106h150q27 0 52 -9t44 -27.5t30 -48t11 -70.5v-33q0 -43 -12.5 -72.5t-33.5 -48t-48 -26.5t-55 -8h-138v-101h-24v550zM379 290q0 58 -28 95t-90 37h-145v-299h133q66 0 98 38t32 96v33z" />
    <glyph glyph-name="germandbls" unicode="&#xdf;" horiz-adv-x="514" 
d="M82 429q0 39 13.5 63t35.5 37t50.5 17t57.5 4h50q30 0 58.5 -3.5t50 -16t35 -37t13.5 -65.5v-6q0 -25 -1 -48t-6.5 -43.5t-16.5 -37.5t-32 -31q32 -20 44.5 -47.5t12.5 -75.5v-40q0 -30 -7.5 -48t-20 -28.5t-29 -15t-33.5 -7.5v21q16 4 28 9t20 14t12.5 24t4.5 39v41
q0 44 -19.5 69.5t-50.5 36.5v15q32 15 51 43t19 75v41q0 29 -6.5 48t-22.5 30.5t-41.5 16.5t-62.5 5h-52q-72 0 -101.5 -22.5t-29.5 -78.5v-427h-24v429z" />
    <glyph glyph-name="agrave" unicode="&#xe0;" 
d="M401 0h-25l-43 148h-213l-43 -148h-25l160 550h29zM228 518l-101 -348h201zM175 731h32l28 -118h-16z" />
    <glyph glyph-name="aacute" unicode="&#xe1;" 
d="M401 0h-25l-43 148h-213l-43 -148h-25l160 550h29zM228 518l-101 -348h201zM235 613h-16l28 118h32z" />
    <glyph glyph-name="acircumflex" unicode="&#xe2;" 
d="M241 550h-29l-160 -550h25l43 148h213l43 -148h25zM328 170h-201l101 348zM237 742l57 -129h-23l-43 98l-43 -98h-23l57 129h18z" />
    <glyph glyph-name="atilde" unicode="&#xe3;" 
d="M349 621q-13 -6 -23 -7t-18 -1q-17 0 -33 6t-32 12.5t-32 12.5t-34 6q-17 0 -33 -3t-34 -11v23q19 10 33.5 11.5t33.5 1.5q17 0 34.5 -6t34.5 -12.5t33 -12.5t30 -6q16 0 40 6v-20zM401 0h-25l-43 148h-213l-43 -148h-25l160 550h29zM228 518l-101 -348h201z" />
    <glyph glyph-name="adieresis" unicode="&#xe4;" 
d="M401 0h-25l-43 148h-213l-43 -148h-25l160 550h29zM228 518l-101 -348h201zM153 639h25v-26h-25v26zM278 639h25v-26h-25v26z" />
    <glyph glyph-name="aring" unicode="&#xe5;" 
d="M401 0h-25l-43 148h-213l-43 -148h-25l160 550h29zM228 518l-101 -348h201zM228 771q38 0 53 -24t15 -56q0 -33 -18 -55.5t-50 -22.5t-50 22.5t-18 55.5q0 32 15 56t53 24zM228 633q14 0 23 6t14.5 15t7.5 19t2 19q0 7 -0.5 17.5t-5 19.5t-14 15.5t-27.5 6.5t-27.5 -6.5
t-14 -15.5t-5 -19.5t-0.5 -17.5q0 -9 2 -19t7 -19t14.5 -15t23.5 -6z" />
    <glyph glyph-name="ae" unicode="&#xe6;" horiz-adv-x="753" 
d="M469 528v-249h171v-22h-171v-235h207v-22h-231v148h-258l-106 -148h-29l389 550h235v-22h-207zM445 514l-243 -344h243v344z" />
    <glyph glyph-name="ccedilla" unicode="&#xe7;" horiz-adv-x="420" 
d="M211 -184h32l28 118h-16zM72 272q0 93 23.5 149t57.5 85.5t73 39t70 9.5h20.5t21.5 -1v-21h-42q-44 0 -80.5 -15t-63 -47t-41.5 -81.5t-15 -118.5q0 -131 54.5 -192.5t169.5 -61.5h18v-22h-35q-40 0 -81 10.5t-74.5 41t-54.5 84.5t-21 141z" />
    <glyph glyph-name="egrave" unicode="&#xe8;" horiz-adv-x="400" 
d="M116 528v-249h171v-22h-171v-235h207v-22h-231v550h231v-22h-207zM161 731h32l28 -118h-16z" />
    <glyph glyph-name="eacute" unicode="&#xe9;" horiz-adv-x="400" 
d="M116 528v-249h171v-22h-171v-235h207v-22h-231v550h231v-22h-207zM220 613h-16l28 118h32z" />
    <glyph glyph-name="ecircumflex" unicode="&#xea;" horiz-adv-x="400" 
d="M323 528v22h-231v-550h231v22h-207v235h171v22h-171v249h207zM218 742l57 -129h-23l-43 98l-43 -98h-23l57 129h18z" />
    <glyph glyph-name="edieresis" unicode="&#xeb;" horiz-adv-x="400" 
d="M116 528v-249h171v-22h-171v-235h207v-22h-231v550h231v-22h-207zM135 639h25v-26h-25v26zM260 639h25v-26h-25v26z" />
    <glyph glyph-name="igrave" unicode="&#xec;" horiz-adv-x="208" 
d="M92 550h24v-550h-24v550zM53 731h32l28 -118h-16z" />
    <glyph glyph-name="iacute" unicode="&#xed;" horiz-adv-x="208" 
d="M116 0h-24v550h24v-550zM111 613h-16l28 118h32z" />
    <glyph glyph-name="icircumflex" unicode="&#xee;" horiz-adv-x="208" 
d="M116 550h-24v-550h24v550zM113 742l57 -129h-23l-43 98l-43 -98h-23l57 129h18z" />
    <glyph glyph-name="idieresis" unicode="&#xef;" horiz-adv-x="208" 
d="M116 0h-24v550h24v-550zM56 639h25v-26h-25v26zM128 639h25v-26h-25v26z" />
    <glyph glyph-name="eth" unicode="&#xf0;" horiz-adv-x="494" 
d="M52 276h66v274h152q68 0 107.5 -32.5t39.5 -101.5v-285q0 -65 -30 -98t-104 -33h-165v254h-66v22zM393 409q0 60 -29 89.5t-105 29.5h-117v-252h80v-22h-80v-232h135q39 0 62 9.5t35 26.5t15.5 41.5t3.5 53.5v256z" />
    <glyph glyph-name="ntilde" unicode="&#xf1;" horiz-adv-x="518" 
d="M402 550h24v-550h-23l-287 483v-483h-24v550h13l297 -503v503zM373 621q-13 -6 -23 -7t-18 -1q-17 0 -33 6t-32 12.5t-32 12.5t-34 6q-17 0 -33 -3t-34 -11v23q19 10 33.5 11.5t33.5 1.5q17 0 34.5 -6t34.5 -12.5t33 -12.5t30 -6q16 0 40 6v-20z" />
    <glyph glyph-name="ograve" unicode="&#xf2;" horiz-adv-x="482" 
d="M242 17q76 0 105 33t29 97v275q0 62 -30 86.5t-105 24.5t-105 -24.5t-30 -86.5v-275q0 -64 29.5 -97t106.5 -33zM241 -5q-30 0 -58.5 6t-51 21.5t-36 41.5t-13.5 66v292q0 40 10 66t29.5 41t49.5 20.5t70 5.5t70 -5.5t49.5 -20.5t29.5 -41t10 -66v-292q0 -40 -13.5 -66
t-36 -41.5t-51 -21.5t-58.5 -6zM190 731h32l28 -118h-16z" />
    <glyph glyph-name="oacute" unicode="&#xf3;" horiz-adv-x="482" 
d="M242 17q76 0 105 33t29 97v275q0 62 -30 86.5t-105 24.5t-105 -24.5t-30 -86.5v-275q0 -64 29.5 -97t106.5 -33zM241 -5q-30 0 -58.5 6t-51 21.5t-36 41.5t-13.5 66v292q0 40 10 66t29.5 41t49.5 20.5t70 5.5t70 -5.5t49.5 -20.5t29.5 -41t10 -66v-292q0 -40 -13.5 -66
t-36 -41.5t-51 -21.5t-58.5 -6zM253 613h-16l28 118h32z" />
    <glyph glyph-name="ocircumflex" unicode="&#xf4;" horiz-adv-x="482" 
d="M242 17q-77 0 -106.5 33t-29.5 97v275q0 62 30 86.5t105 24.5t105 -24.5t30 -86.5v-275q0 -64 -29 -97t-105 -33zM241 -5q30 0 58.5 6t51 21.5t36 41.5t13.5 66v292q0 40 -10 66t-29.5 41t-49.5 20.5t-70 5.5t-70 -5.5t-49.5 -20.5t-29.5 -41t-10 -66v-292
q0 -40 13.5 -66t36 -41.5t51 -21.5t58.5 -6zM250 742l57 -129h-23l-43 98l-43 -98h-23l57 129h18z" />
    <glyph glyph-name="otilde" unicode="&#xf5;" horiz-adv-x="482" 
d="M242 17q76 0 105 33t29 97v275q0 62 -30 86.5t-105 24.5t-105 -24.5t-30 -86.5v-275q0 -64 29.5 -97t106.5 -33zM241 -5q-30 0 -58.5 6t-51 21.5t-36 41.5t-13.5 66v292q0 40 10 66t29.5 41t49.5 20.5t70 5.5t70 -5.5t49.5 -20.5t29.5 -41t10 -66v-292q0 -40 -13.5 -66
t-36 -41.5t-51 -21.5t-58.5 -6zM363 621q-13 -6 -23 -7t-18 -1q-17 0 -33 6t-32 12.5t-32 12.5t-34 6q-17 0 -33 -3t-34 -11v23q19 10 33.5 11.5t33.5 1.5q17 0 34.5 -6t34.5 -12.5t33 -12.5t30 -6q16 0 40 6v-20z" />
    <glyph glyph-name="odieresis" unicode="&#xf6;" horiz-adv-x="482" 
d="M242 17q76 0 105 33t29 97v275q0 62 -30 86.5t-105 24.5t-105 -24.5t-30 -86.5v-275q0 -64 29.5 -97t106.5 -33zM241 -5q-30 0 -58.5 6t-51 21.5t-36 41.5t-13.5 66v292q0 40 10 66t29.5 41t49.5 20.5t70 5.5t70 -5.5t49.5 -20.5t29.5 -41t10 -66v-292q0 -40 -13.5 -66
t-36 -41.5t-51 -21.5t-58.5 -6zM165 639h25v-26h-25v26zM290 639h25v-26h-25v26z" />
    <glyph glyph-name="divide" unicode="&#xf7;" horiz-adv-x="575" 
d="M112 260h351v-22h-351v22zM274 378q0 14 13 14q14 0 14 -14q0 -13 -14 -13q-13 0 -13 13zM274 122q0 14 13 14q14 0 14 -14q0 -13 -14 -13q-13 0 -13 13z" />
    <glyph glyph-name="oslash" unicode="&#xf8;" horiz-adv-x="482" 
d="M338 542q31 -13 46.5 -41t15.5 -79v-292q0 -40 -13.5 -66t-36 -41.5t-51 -21.5t-58.5 -6q-21 0 -41.5 3t-39.5 10l-23 -69h-22l26 77q-26 15 -42.5 42t-16.5 72v292q0 40 10 66t29.5 41t49.5 20.5t70 5.5q49 0 78 -7l28 82h20zM106 147q0 -38 10 -65t33 -43l163 486
q-14 5 -31.5 6.5t-39.5 1.5q-75 0 -105 -24.5t-30 -86.5v-275zM376 422q0 38 -10.5 61.5t-35.5 35.5l-163 -490q28 -12 75 -12q76 0 105 33t29 97v275z" />
    <glyph glyph-name="ugrave" unicode="&#xf9;" horiz-adv-x="500" 
d="M250 -5q-36 0 -65 8t-50 27t-32 50t-11 76v394h24v-386q0 -72 29 -109.5t105 -37.5t105 37.5t29 109.5v386h24v-394q0 -45 -11 -76t-32 -50t-50 -27t-65 -8zM192 731h32l28 -118h-16z" />
    <glyph glyph-name="uacute" unicode="&#xfa;" horiz-adv-x="500" 
d="M250 -5q-36 0 -65 8t-50 27t-32 50t-11 76v394h24v-386q0 -72 29 -109.5t105 -37.5t105 37.5t29 109.5v386h24v-394q0 -45 -11 -76t-32 -50t-50 -27t-65 -8zM264 613h-16l28 118h32z" />
    <glyph glyph-name="ucircumflex" unicode="&#xfb;" horiz-adv-x="500" 
d="M250 -5q36 0 65 8t50 27t32 50t11 76v394h-24v-386q0 -72 -29 -109.5t-105 -37.5t-105 37.5t-29 109.5v386h-24v-394q0 -45 11 -76t32 -50t50 -27t65 -8zM258 742l57 -129h-23l-43 98l-43 -98h-23l57 129h18z" />
    <glyph glyph-name="udieresis" unicode="&#xfc;" horiz-adv-x="500" 
d="M250 -5q-36 0 -65 8t-50 27t-32 50t-11 76v394h24v-386q0 -72 29 -109.5t105 -37.5t105 37.5t29 109.5v386h24v-394q0 -45 -11 -76t-32 -50t-50 -27t-65 -8zM174 639h25v-26h-25v26zM299 639h25v-26h-25v26z" />
    <glyph glyph-name="yacute" unicode="&#xfd;" horiz-adv-x="424" 
d="M337 550h25l-138 -344v-206h-24v206l-138 344h25l125 -309zM222 613h-16l28 118h32z" />
    <glyph glyph-name="thorn" unicode="&#xfe;" horiz-adv-x="465" 
d="M92 550h24v-106h150q27 0 52 -9t44 -27.5t30 -48t11 -70.5v-33q0 -43 -12.5 -72.5t-33.5 -48t-48 -26.5t-55 -8h-138v-101h-24v550zM379 290q0 58 -28 95t-90 37h-145v-299h133q66 0 98 38t32 96v33z" />
    <glyph glyph-name="ydieresis" unicode="&#xff;" horiz-adv-x="424" 
d="M337 550h25l-138 -344v-206h-24v206l-138 344h25l125 -309zM138 639h25v-26h-25v26zM263 639h25v-26h-25v26z" />
    <glyph glyph-name="dotlessi" unicode="&#x131;" horiz-adv-x="208" 
d="M92 430h24v-430h-24v430z" />
    <glyph glyph-name="Lslash" unicode="&#x141;" horiz-adv-x="438" 
d="M169 314l107 21v-24l-107 -21v-268h214v-22h-238v286l-93 -18v24l93 18v240h24v-236z" />
    <glyph glyph-name="lslash" unicode="&#x142;" horiz-adv-x="328" 
d="M276 311l-100 -19v-292h-24v287l-100 -19v24l100 19v239h24v-234l100 19v-24z" />
    <glyph glyph-name="OE" unicode="&#x152;" horiz-adv-x="646" 
d="M362 528v-249h171v-22h-171v-235h207v-22h-231q-8 -4 -16.5 -4.5t-18.5 -0.5q-40 0 -81 10.5t-74.5 41t-54.5 84.5t-21 141q0 93 23.5 149t57.5 85.5t73 39t70 9.5q9 0 21 -1t21 -4h231v-22h-207zM338 529q-8 2 -18.5 3t-23.5 1q-44 0 -80.5 -15t-63 -47t-41.5 -81.5
t-15 -118.5q0 -131 54.5 -192.5t169.5 -61.5q11 0 18 5v507z" />
    <glyph glyph-name="oe" unicode="&#x153;" horiz-adv-x="646" 
d="M362 528v-249h171v-22h-171v-235h207v-22h-231q-8 -4 -16.5 -4.5t-18.5 -0.5q-40 0 -81 10.5t-74.5 41t-54.5 84.5t-21 141q0 93 23.5 149t57.5 85.5t73 39t70 9.5q9 0 21 -1t21 -4h231v-22h-207zM338 529q-8 2 -18.5 3t-23.5 1q-44 0 -80.5 -15t-63 -47t-41.5 -81.5
t-15 -118.5q0 -131 54.5 -192.5t169.5 -61.5q11 0 18 5v507z" />
    <glyph glyph-name="Scaron" unicode="&#x160;" horiz-adv-x="439" 
d="M342 533h-60q-27 0 -59 -2t-60.5 -12t-47.5 -30t-19 -56q0 -21 20 -44.5t50 -48t65.5 -51t65.5 -53.5t50 -55.5t20 -56.5q0 -67 -43.5 -98t-119.5 -31q-21 0 -42 3q-18 2 -39.5 5.5t-40.5 9.5v19q26 -5 57 -10t61 -5q33 0 59 5t45 17t29 33t10 53q0 27 -20 52.5t-50 50.5
t-65.5 49.5t-65.5 50t-50 52t-20 56.5q0 19 8 40t28 38.5t53 29t84 11.5q17 0 41.5 -0.5t55.5 -2.5v-19zM202 613l-57 129h23l43 -98l43 98h23l-57 -129h-18z" />
    <glyph glyph-name="scaron" unicode="&#x161;" horiz-adv-x="439" 
d="M342 533h-60q-27 0 -59 -2t-60.5 -12t-47.5 -30t-19 -56q0 -21 20 -44.5t50 -48t65.5 -51t65.5 -53.5t50 -55.5t20 -56.5q0 -67 -43.5 -98t-119.5 -31q-21 0 -42 3q-18 2 -39.5 5.5t-40.5 9.5v19q26 -5 57 -10t61 -5q33 0 59 5t45 17t29 33t10 53q0 27 -20 52.5t-50 50.5
t-65.5 49.5t-65.5 50t-50 52t-20 56.5q0 19 8 40t28 38.5t53 29t84 11.5q17 0 41.5 -0.5t55.5 -2.5v-19zM202 613l-57 129h23l43 -98l43 98h23l-57 -129h-18z" />
    <glyph glyph-name="Ydieresis" unicode="&#x178;" horiz-adv-x="424" 
d="M337 550h25l-138 -344v-206h-24v206l-138 344h25l125 -309zM138 639h25v-26h-25v26zM263 639h25v-26h-25v26z" />
    <glyph glyph-name="Zcaron" unicode="&#x17d;" horiz-adv-x="420" 
d="M338 0v22h-234l234 505v23h-256v-22h229l-229 -496v-32h256zM198 613l-57 129h23l43 -98l43 98h23l-57 -129h-18z" />
    <glyph glyph-name="zcaron" unicode="&#x17e;" horiz-adv-x="420" 
d="M338 0v22h-234l234 505v23h-256v-22h229l-229 -496v-32h256zM198 613l-57 129h23l43 -98l43 98h23l-57 -129h-18z" />
    <glyph glyph-name="florin" unicode="&#x192;" horiz-adv-x="481" 
d="M366 533h-13q-32 0 -52 -24.5t-32 -59.5t-17 -73t-8 -64q0 -3 -0.5 -5.5t-0.5 -4.5h115v-22h-119q-5 -53 -10.5 -113t-11.5 -123.5t-13 -130t-14 -132.5h-23l48 499h-103v22h107q5 51 14.5 97t24.5 80.5t37 55t52 20.5h7t15 -2z" />
    <glyph glyph-name="circumflex" unicode="&#x2c6;" horiz-adv-x="356" 
d="M187 550l57 -129h-23l-43 98l-43 -98h-23l57 129h18z" />
    <glyph glyph-name="caron" unicode="&#x2c7;" horiz-adv-x="356" 
d="M169 421l-57 129h23l43 -98l43 98h23l-57 -129h-18z" />
    <glyph glyph-name="breve" unicode="&#x2d8;" horiz-adv-x="486" 
d="M243 480q-60 0 -88.5 18t-42.5 52h25q7 -14 15.5 -23t20.5 -14.5t28.5 -8t41.5 -2.5t41.5 2.5t28.5 8t20 14.5t16 23h25q-14 -34 -42.5 -52t-88.5 -18z" />
    <glyph glyph-name="dotaccent" unicode="&#x2d9;" horiz-adv-x="249" 
d="M112 550h25v-26h-25v26z" />
    <glyph glyph-name="ring" unicode="&#x2da;" horiz-adv-x="360" 
d="M180 550q38 0 53 -24t15 -56q0 -33 -18 -55.5t-50 -22.5t-50 22.5t-18 55.5q0 32 15 56t53 24zM180 412q14 0 23 6t14.5 15t7.5 19t2 19q0 7 -0.5 17.5t-5 19.5t-14 15.5t-27.5 6.5t-27.5 -6.5t-14 -15.5t-5 -19.5t-0.5 -17.5q0 -9 2 -19t7 -19t14.5 -15t23.5 -6z" />
    <glyph glyph-name="ogonek" unicode="&#x2db;" horiz-adv-x="284" 
d="M172 -184h-32l-28 118h16z" />
    <glyph glyph-name="tilde" unicode="&#x2dc;" horiz-adv-x="463" 
d="M351 499q-13 -6 -23 -7t-18 -1q-17 0 -33 6t-32 12.5t-32 12.5t-34 6q-17 0 -33 -3t-34 -11v23q19 10 33.5 11.5t33.5 1.5q17 0 34.5 -6t34.5 -12.5t33 -12.5t30 -6q16 0 40 6v-20z" />
    <glyph glyph-name="hungarumlaut" unicode="&#x2dd;" horiz-adv-x="362" 
d="M128 460h-16l30 90h32zM204 460h-16l30 90h32z" />
    <glyph glyph-name="pi" unicode="&#x3c0;" horiz-adv-x="783" 
d="M532 0v397h-281v-397h-24v397h-115v22h559v-22h-115v-397h-24z" />
    <glyph glyph-name="ZWSP" unicode="&#x200b;" horiz-adv-x="0" 
 />
    <glyph glyph-name="endash" unicode="&#x2013;" horiz-adv-x="513" 
d="M112 242h289v-22h-289v22z" />
    <glyph glyph-name="emdash" unicode="&#x2014;" horiz-adv-x="641" 
d="M112 242h417v-22h-417v22z" />
    <glyph glyph-name="quoteleft" unicode="&#x2018;" horiz-adv-x="286" 
d="M158 550h16l-30 -90h-32z" />
    <glyph glyph-name="quoteright" unicode="&#x2019;" horiz-adv-x="286" 
d="M128 460h-16l30 90h32z" />
    <glyph glyph-name="quotesinglbase" unicode="&#x201a;" horiz-adv-x="286" 
d="M128 -82h-16l30 90h32z" />
    <glyph glyph-name="quotedblleft" unicode="&#x201c;" horiz-adv-x="362" 
d="M234 550h16l-30 -90h-32zM158 550h16l-30 -90h-32z" />
    <glyph glyph-name="quotedblright" unicode="&#x201d;" horiz-adv-x="362" 
d="M128 460h-16l30 90h32zM204 460h-16l30 90h32z" />
    <glyph glyph-name="quotedblbase" unicode="&#x201e;" horiz-adv-x="362" 
d="M128 -82h-16l30 90h32zM204 -82h-16l30 90h32z" />
    <glyph glyph-name="dagger" unicode="&#x2020;" horiz-adv-x="478" 
d="M227 -215v527h-115v22h115v216h24v-216h115v-22h-115v-527h-24z" />
    <glyph glyph-name="daggerdbl" unicode="&#x2021;" horiz-adv-x="478" 
d="M112 22h115v290h-115v22h115v216h24v-216h115v-22h-115v-290h115v-22h-115v-215h-24v215h-115v22z" />
    <glyph glyph-name="bullet" unicode="&#x2022;" horiz-adv-x="263" 
d="M112 238h39v-38h-39v38z" />
    <glyph glyph-name="ellipsis" unicode="&#x2026;" horiz-adv-x="654" 
d="M112 26h25v-26h-25v26zM315 26h25v-26h-25v26zM517 26h25v-26h-25v26z" />
    <glyph glyph-name="perthousand" unicode="&#x2030;" horiz-adv-x="923" 
d="M239 0h-25l213 550h26zM197 389q38 0 52 20.5t14 49.5q0 32 -14 53.5t-52 21.5t-52 -21.5t-14 -53.5q0 -29 14 -49.5t52 -20.5zM197 370q-16 0 -31 4.5t-27 14.5t-19.5 27t-7.5 41q0 96 85 96t85 -96q0 -24 -7.5 -41t-19.5 -27t-27 -14.5t-31 -4.5zM467 19q38 0 52 20.5
t14 49.5q0 32 -14 53.5t-52 21.5t-52 -21.5t-14 -53.5q0 -29 14 -49.5t52 -20.5zM467 0q-16 0 -31 4.5t-27 14.5t-19.5 27t-7.5 41q0 96 85 96t85 -96q0 -24 -7.5 -41t-19.5 -27t-27 -14.5t-31 -4.5zM726 19q38 0 52 20.5t14 49.5q0 32 -14 53.5t-52 21.5t-52 -21.5
t-14 -53.5q0 -29 14 -49.5t52 -20.5zM726 0q-16 0 -31 4.5t-27 14.5t-19.5 27t-7.5 41q0 96 85 96t85 -96q0 -24 -7.5 -41t-19.5 -27t-27 -14.5t-31 -4.5z" />
    <glyph glyph-name="guilsinglleft" unicode="&#x2039;" horiz-adv-x="438" 
d="M112 215v25l214 126v-25l-193 -113l193 -113v-25z" />
    <glyph glyph-name="guilsinglright" unicode="&#x203a;" horiz-adv-x="438" 
d="M112 90v25l193 113l-193 113v25l214 -126v-25z" />
    <glyph glyph-name="fraction" unicode="&#x2044;" horiz-adv-x="459" 
d="M137 -51h-25l210 646h25z" />
    <glyph glyph-name="Euro" unicode="&#x20ac;" horiz-adv-x="556" 
d="M402 533q-69 0 -119 -38t-70 -120h152v-22h-156q-7 -35 -7 -82q0 -17 1 -33t3 -31h159v-22h-156q17 -87 70 -127.5t147 -40.5h18v-22h-35q-34 0 -69.5 7.5t-66 28.5t-54.5 58t-34 96h-73v22h70q-2 15 -3 31t-1 34q0 45 6 81h-72v22h76q12 58 37.5 93.5t56 54.5t62.5 25.5
t58 6.5h20.5t21.5 -1v-21h-42v0z" />
    <glyph glyph-name="trademark" unicode="&#x2122;" horiz-adv-x="573" 
d="M160 297v232h-48v21h121v-21h-52v-232h-21zM274 523v-226h-21v253h28l76 -137l76 137h28v-253h-21v226l-77 -140h-12z" />
    <glyph glyph-name="Omega" unicode="&#x2126;" horiz-adv-x="634" 
d="M317 533q-40 0 -66 -11t-41 -30t-20.5 -44.5t-5.5 -55.5v-190q0 -41 2 -69.5t6 -49.5t9 -35.5t11 -25.5v-22h-100v22h72q-17 56 -20.5 101t-3.5 71v208q0 78 41 115.5t116 37.5t116 -37.5t41 -115.5v-208q0 -26 -3.5 -71t-20.5 -101h72v-22h-100v22q6 11 11 25.5t9 35.5
t6 49.5t2 69.5v190q0 30 -5.5 55.5t-20.5 44.5t-41 30t-66 11z" />
    <glyph glyph-name="partialdiff" unicode="&#x2202;" horiz-adv-x="540" 
d="M144 533q26 12 59 17t64 5q27 0 56 -8.5t52 -27t38 -47.5t15 -69v-255q0 -46 -13.5 -75.5t-36 -47t-51 -24t-58.5 -6.5q-29 0 -57 6.5t-50.5 23.5t-36 46.5t-13.5 75.5v20q0 43 11.5 73.5t32 50t49.5 28t65 8.5q4 0 19 -1t35 -7.5t41.5 -20t38.5 -38.5v142q0 59 -40 95
t-106 36q-26 0 -54 -6t-51 -14zM269 305q-38 0 -63.5 -10t-41 -28t-22 -42.5t-6.5 -53.5v-23q0 -29 6.5 -53t22 -41.5t41 -27t63.5 -9.5q75 0 105 36.5t30 94.5v9q0 28 -7 55t-23 47.5t-42 33t-63 12.5z" />
    <glyph glyph-name="Delta" unicode="&#x2206;" horiz-adv-x="652" 
d="M540 0h-428l197 550h33zM145 22h362l-181 505z" />
    <glyph glyph-name="product" unicode="&#x220f;" horiz-adv-x="783" 
d="M532 -136v664h-281v-664h-24v664h-115v22h559v-22h-115v-664h-24z" />
    <glyph glyph-name="summation" unicode="&#x2211;" horiz-adv-x="446" 
d="M112 528v22h222v-22h-196l146 -316l-146 -316h196v-22h-222v22l145 316z" />
    <glyph glyph-name="minus" unicode="&#x2212;" horiz-adv-x="477" 
d="M112 242h253v-22h-253v22z" />
    <glyph glyph-name="radical" unicode="&#x221a;" horiz-adv-x="568" 
d="M456 528h-86l-143 -528h-30l-85 315h25l75 -278l139 513h105v-22z" />
    <glyph glyph-name="infinity" unicode="&#x221e;" horiz-adv-x="1236" 
d="M618 272q-21 -32 -57.5 -63.5t-78 -56t-83 -39.5t-73.5 -15q-104 0 -159 44t-55 145v13q0 51 11.5 85.5t36 56t62.5 31t91 9.5q52 0 98 -16t85 -41t70 -56.5t52 -61.5q21 30 52 61.5t70 56.5t85 41t98 16q53 0 91 -9.5t62.5 -31t36 -56t11.5 -85.5v-13q0 -101 -55 -145
t-159 -44q-32 0 -73.5 15t-83 39.5t-78 56t-57.5 63.5zM315 460q-42 0 -75.5 -5.5t-56.5 -22.5t-35 -48.5t-12 -83.5v-16q0 -54 16.5 -86t43.5 -49.5t61.5 -23t71.5 -5.5q28 0 65.5 14t76 37.5t74.5 54t61 63.5q-64 82 -135 126.5t-156 44.5zM921 460q-85 0 -156 -44.5
t-135 -126.5q25 -33 61 -63.5t74.5 -54t76 -37.5t65.5 -14q37 0 71.5 5.5t61.5 23t43.5 49.5t16.5 86v16q0 52 -12 83.5t-35 48.5t-56.5 22.5t-75.5 5.5z" />
    <glyph glyph-name="integral" unicode="&#x222b;" horiz-adv-x="810" 
d="M674 454q0 46 -36 62.5t-92 16.5q-38 0 -63 -7.5t-39.5 -22.5t-20.5 -38.5t-6 -54.5v-276q0 -42 -11.5 -69t-32 -42.5t-48.5 -21.5t-60 -6q-43 0 -72 7.5t-47 21t-26 32t-8 41.5l24 -1q0 -46 36 -62.5t92 -16.5q38 0 63 7.5t39.5 22.5t20.5 38t6 55v276q0 42 11.5 69
t32 42.5t48.5 21.5t60 6q85 0 119 -28t34 -74z" />
    <glyph glyph-name="approxequal" unicode="&#x2248;" horiz-adv-x="481" 
d="M369 99q-13 -5 -24 -6t-19 -1q-18 0 -36 7.5t-36 16.5t-36.5 16.5t-38.5 7.5q-33 0 -67 -14v22q19 11 37 12.5t34 1.5q21 0 39 -7.5t35.5 -16.5t35 -16.5t37.5 -7.5q16 0 39 6v-21zM369 214q-13 -5 -24 -6t-19 -1q-18 0 -36 7.5t-36 16.5t-36.5 16.5t-38.5 7.5
q-33 0 -67 -14v22q19 11 37 12.5t34 1.5q21 0 39 -7.5t35.5 -16.5t35 -16.5t37.5 -7.5q16 0 39 6v-21z" />
    <glyph glyph-name="notequal" unicode="&#x2260;" horiz-adv-x="452" 
d="M260 245l-45 -135h125v-22h-131l-30 -88h-24l29 88h-72v22h79l45 135h-124v22h132l33 100h22l-32 -100h73v-22h-80z" />
    <glyph glyph-name="lessequal" unicode="&#x2264;" horiz-adv-x="531" 
d="M113 22h306v-22h-306v22zM419 302v-25l-273 -93l273 -92v-25l-307 105v25z" />
    <glyph glyph-name="greaterequal" unicode="&#x2265;" horiz-adv-x="531" 
d="M418 0h-306v22h306v-22zM419 197v-25l-307 -105v25l273 92l-273 93v25z" />
    <glyph glyph-name="lozenge" unicode="&#x25ca;" horiz-adv-x="440" 
d="M303 273l-83 247l-83 -247l83 -247zM204 0l-92 273l93 277h30l93 -277l-92 -273h-32z" />
    <glyph glyph-name="uni25CC" unicode="&#x25cc;" horiz-adv-x="512" 
 />
    <glyph glyph-name="NULL" horiz-adv-x="0" 
 />
    <glyph glyph-name="Superstore" horiz-adv-x="729" 
d="M363 505q53 0 99 -20t80.5 -54.5t54.5 -80.5t20 -99q0 -52 -20 -97.5t-54.5 -79.5t-80.5 -54t-99 -20q-52 0 -97.5 20t-79.5 54t-54 79.5t-20 97.5q0 53 20 99t54 80.5t79.5 54.5t97.5 20zM470 90q14 0 23 5.5t9 21.5q0 17 -5.5 23.5t-18.5 6.5v133q0 26 -9.5 43
t-22.5 28q5 2 9.5 2h9.5h9.5t9.5 -2h11v65q-31 -4 -61.5 -11.5t-53.5 -20.5q-9 2 -17 2h-20q-23 0 -44 -3t-44 -11v-63h6q19 6 39.5 11t36.5 5q9 0 21.5 -0.5t24.5 -4.5t20 -13t8 -25l-82 -8q-18 -2 -36 -6t-33 -14t-24 -27t-9 -45q0 -42 28.5 -67t73.5 -25q11 0 22 0.5
t21 2.5v54l-6 4q-7 -3 -12 -3.5t-11 -0.5q-16 0 -30.5 9t-14.5 32q0 8 3.5 13.5t15.5 9.5t34.5 8t59.5 10v-71q0 -36 10 -52t40 -16h9z" />
    </font>
</defs>
</svg>
